<svg width="76" height="70" viewBox="0 0 76 70" fill="none" xmlns="http://www.w3.org/2000/svg">
<path fill-rule="evenodd" clip-rule="evenodd" d="M24.9026 40.5458C28.6189 43.6755 33.3246 45.3923 38.1869 45.3923C43.0492 45.3923 47.7548 43.6755 51.4713 40.5458L63.1402 43.1726L57.1734 32.8485C58.2636 30.2996 58.8226 27.5558 58.8162 24.7842C58.811 19.757 56.9668 14.9047 53.6302 11.139C50.2936 7.37334 45.6942 4.95353 40.6962 4.33422L38.1866 0L35.6805 4.33722C32.5074 4.72767 29.4683 5.84832 26.8028 7.61089C24.1374 9.37343 21.9185 11.7298 20.3207 14.4942C18.723 17.2586 17.7901 20.3557 17.5958 23.5412C17.4013 26.7268 17.9507 29.914 19.2004 32.8515L13.2328 43.1741L24.9026 40.5458ZM36.3151 10.7376V34.1357L20.7688 37.6368L36.3151 10.7376ZM45.5322 39.9694C43.0693 41.1578 40.3537 41.7302 37.6196 41.6371C34.8857 41.5439 32.2154 40.7883 29.8393 39.435L38.1903 37.5543L46.5473 39.4366C46.2124 39.6257 45.8729 39.8033 45.5284 39.9694H45.5322ZM40.0662 34.1357V10.7376L55.6125 37.6368L40.0662 34.1357ZM55.0689 24.7858C55.0699 26.0333 54.9328 27.2773 54.6599 28.4948L43.2083 8.6872C46.6435 9.76207 49.6456 11.9028 51.778 14.7981C53.9104 17.6934 55.062 21.1922 55.0651 24.7858H55.0689ZM21.3101 24.7858C21.3133 21.1922 22.4649 17.6934 24.5973 14.7981C26.7297 11.9028 29.7319 9.76207 33.167 8.6872L21.7191 28.4948C21.4457 27.2774 21.3081 26.0334 21.3086 24.7858H21.3101ZM0 54.5151H2.36311V60.4727H4.54352V54.5151H6.90665V52.6044H0V54.5151ZM11.4885 60.6296C12.2938 60.6042 13.0738 60.3427 13.7311 59.8776C14.3884 59.4124 14.894 58.7643 15.1845 58.0142C15.4752 57.264 15.538 56.445 15.3652 55.6595C15.1924 54.8739 14.7916 54.1566 14.2129 53.597C13.6342 53.0374 12.9032 52.6603 12.1111 52.5129C11.3191 52.3654 10.501 52.4541 9.75918 52.7679C9.01727 53.0817 8.3844 53.6066 7.93955 54.2772C7.4947 54.9477 7.25757 55.7342 7.25776 56.5385C7.26139 57.0856 7.37418 57.6266 7.58955 58.1298C7.80491 58.633 8.11854 59.0882 8.51211 59.4691C8.90569 59.85 9.37135 60.1487 9.88185 60.3479C10.3924 60.5472 10.9375 60.6429 11.4855 60.6296H11.4885ZM11.4885 54.4138C11.7624 54.4166 12.033 54.4743 12.2842 54.5833C12.5354 54.6924 12.7622 54.8507 12.9509 55.0489C13.1398 55.2469 13.2868 55.4809 13.3834 55.7367C13.48 55.9927 13.5242 56.2653 13.5132 56.5385C13.5284 56.8109 13.488 57.0836 13.3944 57.3399C13.3008 57.5961 13.156 57.8308 12.9687 58.0295C12.7814 58.2282 12.5557 58.3869 12.3051 58.4958C12.0545 58.6048 11.7844 58.6617 11.5111 58.6633C11.238 58.6593 10.9684 58.6007 10.7184 58.4911C10.4683 58.3815 10.2427 58.223 10.055 58.0249C9.8673 57.8269 9.72121 57.5933 9.62529 57.3381C9.52946 57.0828 9.48571 56.8109 9.49683 56.5385C9.4811 56.267 9.52078 55.9952 9.61335 55.7395C9.70593 55.4838 9.84949 55.2495 10.0354 55.0507C10.2213 54.852 10.4457 54.6929 10.6949 54.5832C10.9442 54.4734 11.2131 54.4153 11.4855 54.4123L11.4885 54.4138ZM20.6478 60.4727V54.5151H23.0071V52.6044H16.0982V54.5151H18.4605V60.4727H20.641H20.6478ZM31.1348 60.4727V52.6044H28.9468V55.5493H26.1446V52.6044H23.9642V60.4727H26.1446V57.4827H28.9468V60.4727H31.1273H31.1348ZM38.8647 54.4588V52.6044H32.5302V60.4727H41.0444L38.9068 58.6633L34.6873 58.6182V57.37H38.4677V55.6507H34.6873V54.4588H38.8617H38.8647ZM44.2209 59.037L46.2345 55.9599V60.4787H48.4059V52.6044H46.0969L44.2172 55.6507L42.3376 52.6044H40.0316V58.288L42.1692 60.0975V55.9764L44.1721 59.034H44.2172L44.2209 59.037ZM58.0154 56.5415C58.0451 55.6984 57.8219 54.8657 57.3745 54.15C56.9271 53.4344 56.2758 52.8683 55.5041 52.5244C54.7324 52.1805 53.8754 52.0743 53.0429 52.2196C52.2104 52.3649 51.4403 52.7549 50.8313 53.3398C50.2223 53.9246 49.802 54.6777 49.6243 55.5024C49.4467 56.3273 49.5197 57.1862 49.8342 57.9691C50.1486 58.7522 50.6901 59.4237 51.3892 59.8977C52.0884 60.3717 52.9133 60.6265 53.7584 60.6296C54.3097 60.651 54.8596 60.561 55.3752 60.365C55.8908 60.169 56.3614 59.871 56.7587 59.4889C57.1561 59.1068 57.4719 58.6484 57.6874 58.1415C57.9028 57.6345 58.0134 57.0893 58.0125 56.5385L58.0154 56.5415ZM51.7705 56.5415C51.7545 56.2699 51.7939 55.9979 51.8863 55.7419C51.9786 55.4859 52.1221 55.2513 52.3079 55.0522C52.4938 54.8531 52.7181 54.6938 52.9674 54.5838C53.2168 54.4738 53.4859 54.4155 53.7584 54.4123C54.0323 54.4152 54.3029 54.4729 54.554 54.582C54.8051 54.6911 55.0318 54.8494 55.2206 55.0475C55.4094 55.2457 55.5565 55.4795 55.6531 55.7354C55.7498 55.9912 55.794 56.2638 55.7832 56.537C55.7984 56.8095 55.7579 57.0822 55.6642 57.3385C55.5706 57.5949 55.4257 57.8296 55.2383 58.0283C55.0509 58.2271 54.8251 58.3856 54.5744 58.4946C54.3238 58.6034 54.0536 58.6603 53.7802 58.6617C53.5074 58.6575 53.2382 58.5987 52.9885 58.4891C52.7387 58.3794 52.5134 58.221 52.3259 58.0232C52.1383 57.8254 51.9923 57.5922 51.8965 57.3371C51.8006 57.0822 51.7568 56.8106 51.7675 56.5385L51.7705 56.5415ZM58.8824 56.5415C58.8535 57.3847 59.0774 58.2172 59.5254 58.9325C59.9735 59.6477 60.6253 60.2132 61.3973 60.5565C62.1694 60.8997 63.0265 61.0051 63.8588 60.8591C64.6911 60.7131 65.4609 60.3223 66.0694 59.7369C66.6779 59.1514 67.0976 58.398 67.2744 57.5731C67.4513 56.7482 67.3775 55.8893 67.0623 55.1065C66.7472 54.3238 66.2051 53.6528 65.5056 53.1794C64.8061 52.7061 63.9808 52.452 63.1357 52.4497C62.5843 52.4279 62.0343 52.5175 61.5186 52.7132C61.0028 52.9089 60.532 53.2066 60.1345 53.5886C59.7369 53.9704 59.4208 54.4287 59.2051 54.9356C58.9894 55.4426 58.8786 55.9878 58.8793 56.5385L58.8824 56.5415ZM65.1386 56.5415C65.1538 56.814 65.1133 57.0866 65.0197 57.343C64.926 57.5994 64.7811 57.8341 64.5938 58.0328C64.4065 58.2315 64.1805 58.3902 63.93 58.4991C63.6793 58.6079 63.4091 58.6648 63.1357 58.6662C62.8626 58.6622 62.5932 58.6036 62.3431 58.4939C62.0931 58.3843 61.8676 58.2257 61.6798 58.0277C61.4921 57.8297 61.3461 57.5962 61.2501 57.3409C61.1542 57.0857 61.1105 56.8139 61.1214 56.5415C61.1059 56.2699 61.1458 55.998 61.2388 55.7423C61.3316 55.4865 61.4754 55.2523 61.6617 55.0536C61.8479 54.8549 62.0725 54.6961 62.322 54.5866C62.5715 54.4772 62.8406 54.4194 63.1131 54.4169C63.3865 54.42 63.6566 54.4779 63.9073 54.5869C64.158 54.696 64.3842 54.854 64.5727 55.0518C64.7612 55.2496 64.9082 55.483 65.0048 55.7384C65.1015 55.9937 65.146 56.2658 65.1357 56.5385L65.1386 56.5415ZM73.7798 52.6073V56.7659L70.5393 52.6073H68.5033V60.4757H70.6633V56.1595L74.0272 60.4757H75.9384V52.6044H73.7775L73.7798 52.6073ZM11.7997 61.9175L8.44721 69.8414H10.7427L12.7343 69.0841L14.9148 69.8414H17.2553L13.902 61.9175H11.7968H11.7997ZM12.7366 67.2671L11.4111 67.8495L12.7343 64.503L14.0599 67.8465L12.7366 67.2671ZM28.4311 61.9175L25.0778 69.8414H27.3732L29.3657 69.0841L31.546 69.8414H33.8866L30.5333 61.9175H28.428H28.4311ZM29.3678 67.2671L28.0424 67.8495L29.3657 64.503L30.6934 67.8495L29.3678 67.2671ZM21.3755 68.0094C20.8595 67.9493 20.3835 67.702 20.038 67.3146C19.6926 66.9272 19.5017 66.4266 19.5017 65.908C19.5017 65.3893 19.6926 64.8887 20.038 64.5013C20.3835 64.1139 20.8595 63.8666 21.3755 63.8065C21.7165 63.8079 22.0522 63.8915 22.3538 64.0502C22.6556 64.2088 22.9145 64.4377 23.1086 64.7176L24.7063 63.4807C24.3423 62.9453 23.8475 62.5114 23.2685 62.2203C22.6896 61.9291 22.0458 61.7902 21.3981 61.8169C20.8535 61.803 20.3116 61.8988 19.805 62.0988C19.2984 62.2988 18.8373 62.5988 18.4497 62.9809C18.062 63.3629 17.7554 63.8191 17.5486 64.3222C17.3416 64.8253 17.2386 65.3649 17.2455 65.9087C17.2556 66.7861 17.5447 67.6376 18.0712 68.3403C18.5978 69.0431 19.3344 69.5604 20.1748 69.8179C21.0152 70.0754 21.9157 70.0594 22.7465 69.7725C23.5773 69.4857 24.2952 68.9426 24.7965 68.2217L23.1537 67.0525C22.9582 67.3447 22.6938 67.5846 22.3838 67.751C22.0738 67.9174 21.7275 68.0054 21.3755 68.0071V68.0094ZM37.7144 61.9737H34.676V69.8414H37.6685C40.5038 69.8414 42.1579 68.1557 42.1579 65.8855C42.1586 63.5903 40.5255 61.9715 37.7144 61.9715V61.9737ZM37.7482 67.9089H36.8587V63.8846H37.7482C38.0263 63.8624 38.3059 63.898 38.5695 63.989C38.8331 64.08 39.0749 64.2246 39.2799 64.4134C39.4848 64.6024 39.6484 64.8315 39.7602 65.0867C39.872 65.3417 39.9298 65.6171 39.9298 65.8956C39.9298 66.174 39.872 66.4494 39.7602 66.7045C39.6484 66.9595 39.4848 67.1888 39.2799 67.3776C39.0749 67.5666 38.8331 67.7111 38.5695 67.8021C38.3059 67.8931 38.0263 67.9287 37.7482 67.9066V67.9089ZM45.445 66.7395H49.2254V65.0201H45.445V63.8283H49.6186V61.9737H43.2842V69.8414H49.675V67.9876H45.445V66.7395ZM54.9749 65.0201L53.0953 61.9737H50.7885V69.8414H52.9261V65.3458L54.9291 68.4035H54.9742L56.9885 65.3263V69.8444H59.1598V61.9715H56.853L54.9749 65.0201ZM63.9424 64.8399L62.3221 61.9737H59.8357L62.8289 66.8972V69.8414H65.0228V66.8633L68.016 61.9737H65.5739L63.9424 64.8399Z" fill="white"/>
</svg>
