
<svg width="14" height="15" viewBox="0 0 14 15" fill="none" xmlns="http://www.w3.org/2000/svg">
<path d="M7.69136 7.06838L13.7062 0.934225C13.9136 0.722703 13.9136 0.370165 13.7062 0.158642C13.4988 -0.0528807 13.1531 -0.0528807 12.9457 0.158642L6.93086 6.2928L0.916049 0.158642C0.708642 -0.0528807 0.362963 -0.0528807 0.155556 0.158642C-0.0518518 0.370165 -0.0518518 0.722703 0.155556 0.934225L6.17037 7.06838L0.155556 13.2025C-0.0518518 13.4141 -0.0518518 13.7666 0.155556 13.9781C0.293827 14.0486 0.432099 14.1191 0.57037 14.1191C0.708642 14.1191 0.846914 14.0486 0.985185 13.9781L7 7.84397L13.0148 13.9781C13.1531 14.1191 13.2914 14.1191 13.4296 14.1191C13.5679 14.1191 13.7062 14.0486 13.8444 13.9781C14.0519 13.7666 14.0519 13.4141 13.8444 13.2025L7.69136 7.06838Z" fill="#C5C5C5"/>
</svg>
