<svg xmlns="http://www.w3.org/2000/svg" viewBox="0 0 121 83" width="121" height="83">
	<style>
		tspan { white-space:pre }
		.shp0 { fill: #ffffff } 
	</style>
	<path id="Shape 1" class="shp0" d="M81.31 23.12L90.03 23.12L90.03 32.42L96.82 32.42L96.82 7.94L90.03 7.94L90.03 17.11L81.31 17.11L81.31 7.94L74.52 7.94L74.52 32.42L81.31 32.42L81.31 23.12ZM107.89 26.65L107.89 22.77L119.65 22.77L119.65 17.42L107.89 17.42L107.89 13.71L120.87 13.71L120.87 7.94L101.16 7.94L101.16 32.42L121.05 32.42L121.05 26.65L107.89 26.65ZM87.58 44.35C87.58 41.86 86.85 39.97 85.41 38.54C83.77 36.9 81.17 35.92 77.43 35.92L65.84 35.92L65.84 66.27L53.03 35.74L47.71 35.74C52.38 32.15 55.39 26.52 55.39 20.18C55.39 17.98 55.02 15.87 54.35 13.89L57.4 13.89L57.4 32.42L64.19 32.42L64.19 13.89L71.55 13.89L71.55 7.94L51.1 7.94C47.49 3.44 41.95 0.55 35.73 0.55C29.51 0.55 23.97 3.44 20.36 7.94L-0.05 7.94L-0.05 13.89L7.3 13.89L7.3 32.42L14.1 32.42L14.1 13.89L17.11 13.89C16.44 15.87 16.07 17.98 16.07 20.18C16.07 27.39 19.96 33.69 25.76 37.1L20.64 45.39L14.79 35.92L7.62 35.92L7.62 60.4L14.27 60.4L14.27 46.41L20.5 55.92L20.64 55.92L26.91 46.34L26.91 60.4L33.67 60.4L33.67 39.71C34.35 39.78 35.03 39.82 35.73 39.82C39.48 39.82 42.99 38.77 45.97 36.95L36.04 60.4L43.19 60.4L44.94 56.03L54.39 56.03L65.35 82.45L65.84 82.45L72.63 82.45L72.63 52.98L75.61 52.98L80.54 60.4L88.39 60.4L82.54 51.86C85.59 50.57 87.58 48.09 87.58 44.35ZM18.54 23.76C28.54 25.94 35.14 22.83 39.99 20.53C43.02 19.09 45.42 17.96 47.46 18.72C49.22 19.37 50.84 21.46 52.54 25.25C52.3 26.05 52 26.83 51.65 27.57C48.11 22.18 44.86 23.75 40.47 25.89C36.08 28.03 30.1 30.93 20.39 28.7C19.54 27.18 18.91 25.52 18.54 23.76ZM52.99 16.98C45.63 10.03 42.18 11.42 37.37 14.22C33.53 16.45 28.78 19.22 18.8 15.54C19.19 14.15 19.74 12.82 20.44 11.59C24.99 11.91 29.2 11.15 33.27 10.4C39.95 9.17 45.76 8.11 51.37 12.24C52.13 13.71 52.68 15.3 52.99 16.98ZM38.08 15.43C42.44 12.89 45.35 11.21 53.26 19.21C53.28 19.53 53.29 19.86 53.29 20.18C53.29 21.17 53.2 22.13 53.05 23.07C51.43 19.88 49.82 18.1 47.94 17.4C45.35 16.44 42.72 17.69 39.39 19.27C34.63 21.52 28.14 24.59 18.3 22.27C18.22 21.59 18.17 20.89 18.17 20.18C18.17 19.07 18.28 17.97 18.48 16.91C28.96 20.73 34 17.8 38.08 15.43ZM40.03 3.18C40.02 3.18 40.02 3.19 40.02 3.19C39.36 3.95 37.13 4.11 34.78 4.27L33.08 4.4C31.1 4.55 29.22 4.68 28.11 4.39C30.42 3.27 33 2.65 35.73 2.65C37.21 2.65 38.65 2.83 40.03 3.18ZM26.61 5.2C27.37 5.79 28.49 5.97 29.89 5.97C30.87 5.97 31.97 5.88 33.18 5.79L34.87 5.67C37.76 5.47 40.03 5.31 41.07 4.11C41.21 3.95 41.31 3.77 41.4 3.59C44.73 4.73 47.61 6.84 49.7 9.58C44.36 6.94 38.82 7.95 33.02 9.02C29.26 9.72 25.38 10.43 21.27 10.25C22.68 8.22 24.5 6.49 26.61 5.2ZM21.45 30.37C23.51 30.76 25.4 30.92 27.15 30.92C33.35 30.92 37.67 28.81 41.08 27.15C45.55 24.97 47.84 23.87 50.89 29.01C49.41 31.53 47.33 33.66 44.83 35.18C39.87 31.33 36.98 32.29 31.83 34.02C30.48 34.47 28.95 34.98 27.17 35.49C24.91 34.22 22.95 32.46 21.45 30.37ZM29.04 36.39C30.23 36.03 31.3 35.67 32.28 35.34C37.23 33.68 39.44 32.94 43.48 35.91C41.14 37.07 38.51 37.72 35.73 37.72C33.36 37.72 31.11 37.25 29.04 36.39ZM46.93 50.75L49.7 43.79L52.43 50.75L46.93 50.75ZM77.11 47.67L72.63 47.67L72.63 41.79L77.08 41.79C79.35 41.79 80.75 42.77 80.75 44.7C80.75 46.55 79.42 47.67 77.11 47.67ZM101.41 45.15C98.01 44.38 97.17 43.89 97.17 42.77C97.17 41.83 97.98 41.13 99.62 41.13C101.79 41.13 104.25 41.97 106.49 43.54L109.88 38.75C107.22 36.62 103.97 35.5 99.8 35.5C93.92 35.5 90.31 38.79 90.31 43.33C90.31 48.44 94.34 49.91 99.55 51.09C102.88 51.86 103.69 52.42 103.69 53.44C103.69 54.56 102.71 55.19 100.88 55.19C98.05 55.19 95.35 54.17 92.94 52.25L89.16 56.76C92.17 59.45 96.3 60.82 100.64 60.82C106.59 60.82 110.55 57.84 110.55 52.84C110.55 48.19 107.05 46.37 101.41 45.15Z" />
</svg>